<svg width="40" height="40" viewBox="0 0 40 40" fill="none" xmlns="http://www.w3.org/2000/svg">
<path d="M28.3333 32.0333H8.33333V11.6666H20V8.33325H8.33333C6.5 8.33325 5 9.83325 5 11.6666V31.6666C5 33.4999 6.5 34.9999 8.33333 34.9999H28.3333C30.1667 34.9999 31.6667 33.4999 31.6667 31.6666V19.9999H28.3333V32.0333Z" fill="#F2F6FA"/>
<path d="M31.6667 3.33325H28.3334V8.33325H23.3334C23.3501 8.34992 23.3334 11.6666 23.3334 11.6666H28.3334V16.6499C28.3501 16.6666 31.6667 16.6499 31.6667 16.6499V11.6666H36.6667V8.33325H31.6667V3.33325ZM11.6667 14.9999H25.0001V18.3333H11.6667V14.9999ZM11.6667 19.9999V23.3333H25.0001V19.9999H20.0001H11.6667ZM11.6667 24.9999H25.0001V28.3333H11.6667V24.9999Z" fill="#F2F6FA"/>
</svg>
