<svg width="24" height="24" viewBox="0 0 24 24" fill="none" xmlns="http://www.w3.org/2000/svg">
<path d="M22.4598 10.1536H5.25583L12.772 2.6375C13.3727 2.03682 13.3727 1.0511 12.772 0.45042C12.6295 0.307639 12.4602 0.194361 12.2739 0.117072C12.0876 0.0397828 11.8879 0 11.6861 0C11.4844 0 11.2847 0.0397828 11.0984 0.117072C10.912 0.194361 10.7428 0.307639 10.6003 0.45042L0.450421 10.6003C0.30764 10.7428 0.194362 10.912 0.117073 11.0984C0.0397835 11.2847 0 11.4844 0 11.6861C0 11.8879 0.0397835 12.0876 0.117073 12.2739C0.194362 12.4602 0.30764 12.6295 0.450421 12.772L10.6003 22.9219C10.7429 23.0645 10.9122 23.1776 11.0985 23.2547C11.2848 23.3319 11.4845 23.3716 11.6861 23.3716C11.8878 23.3716 12.0875 23.3319 12.2738 23.2547C12.4601 23.1776 12.6294 23.0645 12.772 22.9219C12.9146 22.7793 13.0277 22.61 13.1049 22.4237C13.182 22.2374 13.2217 22.0377 13.2217 21.836C13.2217 21.6344 13.182 21.4347 13.1049 21.2484C13.0277 21.0621 12.9146 20.8928 12.772 20.7502L5.25583 13.234H22.4598C23.3069 13.234 24 12.541 24 11.6938C24 10.8467 23.3069 10.1536 22.4598 10.1536Z" fill="#160E47"/>
</svg>
