<svg width="19" height="19" viewBox="0 0 19 19" fill="none" xmlns="http://www.w3.org/2000/svg">
<path d="M10.2916 12.6667H8.70831C8.2729 12.6667 7.91665 12.3104 7.91665 11.875H2.3829V15.0417C2.3829 15.9125 3.0954 16.625 3.96623 16.625H15.0416C15.9125 16.625 16.625 15.9125 16.625 15.0417V11.875H11.0833C11.0833 12.3104 10.7271 12.6667 10.2916 12.6667ZM15.8333 5.54167H12.6666C12.6666 3.79208 11.2496 2.375 9.49998 2.375C7.7504 2.375 6.33331 3.79208 6.33331 5.54167H3.16665C2.29581 5.54167 1.58331 6.25417 1.58331 7.125V9.5C1.58331 10.3787 2.2879 11.0833 3.16665 11.0833H7.91665V10.2917C7.91665 9.85625 8.2729 9.5 8.70831 9.5H10.2916C10.7271 9.5 11.0833 9.85625 11.0833 10.2917V11.0833H15.8333C16.7041 11.0833 17.4166 10.3708 17.4166 9.5V7.125C17.4166 6.25417 16.7041 5.54167 15.8333 5.54167ZM7.91665 5.54167C7.91665 4.67083 8.62915 3.95833 9.49998 3.95833C10.3708 3.95833 11.0833 4.67083 11.0833 5.54167H7.90873H7.91665Z" fill="#F2F6FA"/>
</svg>
