<svg width="15" height="15" viewBox="0 0 15 15" fill="none" xmlns="http://www.w3.org/2000/svg">
<g clip-path="url(#clip0_143_751)">
<path d="M1.5 0C0.671 0 0 0.67 0 1.5V10.494C0 11.323 0.671 11.993 1.5 11.993H5.233L7.084 14.768C7.12966 14.8365 7.19152 14.8926 7.26409 14.9315C7.33666 14.9703 7.41769 14.9906 7.5 14.9906C7.58231 14.9906 7.66334 14.9703 7.73591 14.9315C7.80848 14.8926 7.87034 14.8365 7.916 14.768L9.767 11.993H13.5C14.329 11.993 15 11.323 15 10.493V1.5C15 0.67 14.329 0 13.5 0H1.5Z" fill="#160E47"/>
</g>
<defs>
<clipPath id="clip0_143_751">
<rect width="15" height="15" fill="white"/>
</clipPath>
</defs>
</svg>
