<svg width="24" height="24" viewBox="0 0 24 24" fill="none" xmlns="http://www.w3.org/2000/svg">
<g clip-path="url(#clip0_244_317)">
<path fill-rule="evenodd" clip-rule="evenodd" d="M13.1502 4.70232L11.4977 6.35489C11.1743 6.66716 10.7413 6.83995 10.2918 6.83605C9.84235 6.83214 9.41238 6.65185 9.09454 6.33401C8.7767 6.01617 8.59641 5.5862 8.5925 5.13672C8.58859 4.68724 8.76138 4.25421 9.07366 3.93089L10.7262 2.27661C12.1845 0.818294 14.1624 -0.000976578 16.2248 -0.000976562C18.2872 -0.000976547 20.2651 0.818295 21.7234 2.27661C23.1817 3.73492 24.001 5.71281 24.001 7.77518C24.001 9.83754 23.1817 11.8154 21.7234 13.2737L20.0691 14.9263C19.9109 15.0901 19.7218 15.2207 19.5126 15.3105C19.3035 15.4003 19.0785 15.4476 18.8509 15.4496C18.6233 15.4516 18.3976 15.4082 18.1869 15.322C17.9762 15.2358 17.7848 15.1085 17.6238 14.9476C17.4629 14.7866 17.3356 14.5952 17.2494 14.3845C17.1632 14.1738 17.1198 13.9481 17.1218 13.7205C17.1238 13.4929 17.1711 13.2679 17.2609 13.0588C17.3508 12.8496 17.4814 12.6605 17.6451 12.5023L19.2977 10.848C20.0748 10.0255 20.5006 8.93226 20.4845 7.80073C20.4685 6.66921 20.0118 5.58854 19.2116 4.78835C18.4114 3.98817 17.3308 3.53153 16.1992 3.51546C15.0677 3.4994 13.9728 3.92517 13.1502 4.70232ZM6.3548 9.07375C6.67618 9.39523 6.85672 9.83118 6.85672 10.2857C6.85672 10.7403 6.67618 11.1763 6.3548 11.4977L4.70223 13.152C3.92508 13.9746 3.4993 15.0678 3.51537 16.1993C3.53143 17.3309 3.98807 18.4115 4.78826 19.2117C5.58845 20.0119 6.66912 20.4685 7.80064 20.4846C8.93216 20.5007 10.0254 20.0749 10.8479 19.2978L12.5022 17.6452C12.8255 17.3329 13.2586 17.1601 13.7081 17.164C14.1575 17.1679 14.5875 17.3482 14.9053 17.6661C15.2232 17.9839 15.4035 18.4139 15.4074 18.8633C15.4113 19.3128 15.2385 19.7459 14.9262 20.0692L13.2737 21.7217C11.8102 23.1542 9.84082 23.9515 7.79305 23.9407C5.74527 23.9298 3.78445 23.1116 2.33632 21.6637C0.888187 20.2157 0.0696628 18.2551 0.058466 16.2073C0.0472692 14.1595 0.844303 12.19 2.27651 10.7263L3.9308 9.07375C4.25227 8.75237 4.68823 8.57183 5.1428 8.57183C5.59737 8.57183 6.03332 8.75237 6.3548 9.07375ZM15.7834 10.6406C16.0956 10.3173 16.2684 9.88426 16.2645 9.43478C16.2606 8.9853 16.0803 8.55533 15.7625 8.23749C15.4446 7.91965 15.0147 7.73936 14.5652 7.73545C14.1157 7.73154 13.6827 7.90434 13.3594 8.21661L8.21651 13.3595C7.90424 13.6828 7.73145 14.1158 7.73536 14.5653C7.73926 15.0148 7.91955 15.4447 8.2374 15.7626C8.55524 16.0804 8.9852 16.2607 9.43468 16.2646C9.88416 16.2685 10.3172 16.0957 10.6405 15.7835L15.7834 10.6406Z" fill="#160E47"/>
</g>
<defs>
<clipPath id="clip0_244_317">
<rect width="24" height="24" fill="white"/>
</clipPath>
</defs>
</svg>
