<svg width="30" height="23" viewBox="0 0 30 23" fill="none" xmlns="http://www.w3.org/2000/svg">
<path d="M15.5 17.5C16.163 17.5 16.7989 17.7634 17.2678 18.2322C17.7366 18.7011 18 19.337 18 20C18 20.663 17.7366 21.2989 17.2678 21.7678C16.7989 22.2366 16.163 22.5 15.5 22.5C14.837 22.5 14.2011 22.2366 13.7322 21.7678C13.2634 21.2989 13 20.663 13 20C13 19.337 13.2634 18.7011 13.7322 18.2322C14.2011 17.7634 14.837 17.5 15.5 17.5ZM15.5 8.75C16.163 8.75 16.7989 9.01339 17.2678 9.48223C17.7366 9.95107 18 10.587 18 11.25C18 11.913 17.7366 12.5489 17.2678 13.0178C16.7989 13.4866 16.163 13.75 15.5 13.75C14.837 13.75 14.2011 13.4866 13.7322 13.0178C13.2634 12.5489 13 11.913 13 11.25C13 10.587 13.2634 9.95107 13.7322 9.48223C14.2011 9.01339 14.837 8.75 15.5 8.75ZM15.5 0C16.163 0 16.7989 0.263392 17.2678 0.732233C17.7366 1.20107 18 1.83696 18 2.5C18 3.16304 17.7366 3.79893 17.2678 4.26777C16.7989 4.73661 16.163 5 15.5 5C14.837 5 14.2011 4.73661 13.7322 4.26777C13.2634 3.79893 13 3.16304 13 2.5C13 1.83696 13.2634 1.20107 13.7322 0.732233C14.2011 0.263392 14.837 0 15.5 0Z" fill="#160E47"/>
</svg>
