<svg width="31" height="31" viewBox="0 0 31 31" fill="none" xmlns="http://www.w3.org/2000/svg">
<circle cx="15.5" cy="15.5" r="15.5" fill="#160E47"/>
<path d="M8.25 20.095V22.375C8.25 22.585 8.415 22.75 8.625 22.75H10.905C11.0025 22.75 11.1 22.7125 11.1675 22.6375L19.3575 14.455L16.545 11.6425L8.3625 19.825C8.2875 19.9 8.25 19.99 8.25 20.095ZM21.5325 12.28C21.602 12.2106 21.6572 12.1282 21.6948 12.0375C21.7325 11.9467 21.7518 11.8495 21.7518 11.7513C21.7518 11.653 21.7325 11.5558 21.6948 11.465C21.6572 11.3743 21.602 11.2919 21.5325 11.2225L19.7775 9.4675C19.7081 9.39797 19.6257 9.34281 19.535 9.30518C19.4442 9.26754 19.347 9.24817 19.2488 9.24817C19.1505 9.24817 19.0533 9.26754 18.9625 9.30518C18.8718 9.34281 18.7894 9.39797 18.72 9.4675L17.3475 10.84L20.16 13.6525L21.5325 12.28Z" fill="#F2F6FA"/>
</svg>
