<svg width="20" height="20" viewBox="0 0 20 20" fill="none" xmlns="http://www.w3.org/2000/svg">
<path d="M18.79 2.61001C18.9046 2.46238 18.9755 2.28554 18.9945 2.09961C19.0135 1.91369 18.98 1.72616 18.8976 1.55838C18.8153 1.39059 18.6875 1.2493 18.5288 1.15058C18.3701 1.05187 18.1869 0.999694 18 1.00001H5.83L13.8 8.97001L18.79 2.61001ZM19.49 17.49L2.51 0.510008C2.32303 0.32303 2.06943 0.217987 1.805 0.217987C1.54058 0.217987 1.28698 0.32303 1.1 0.510008C0.913026 0.696985 0.807983 0.950581 0.807983 1.21501C0.807983 1.47943 0.913026 1.73303 1.1 1.92001L9 10V15C9 16.1 9.9 17 11 17C12.1 17 13 16.1 13 15V13.83L18.07 18.9C18.46 19.29 19.09 19.29 19.48 18.9C19.87 18.51 19.88 17.88 19.49 17.49Z" fill="white"/>
</svg>
