<svg width="20" height="20" viewBox="0 0 20 20" fill="none" xmlns="http://www.w3.org/2000/svg">
<path d="M8.71747 12.4441L4.07018 17.0922C3.99384 17.1686 3.90321 17.2291 3.80347 17.2704C3.70373 17.3117 3.59682 17.333 3.48886 17.333C3.3809 17.333 3.274 17.3117 3.17425 17.2704C3.07451 17.2291 2.98388 17.1686 2.90754 17.0922C2.8312 17.0159 2.77064 16.9252 2.72933 16.8255C2.68801 16.7258 2.66675 16.6189 2.66675 16.5109C2.66675 16.4029 2.68801 16.296 2.72933 16.1963C2.77064 16.0965 2.8312 16.0059 2.90754 15.9296L7.55565 11.2823L4.07018 7.79517C4.72542 7.13937 5.52962 6.65187 6.41414 6.37429C7.29866 6.09672 8.23721 6.03732 9.14966 6.20116L12.2038 3.14789C12.5119 2.83981 12.9298 2.66675 13.3656 2.66675C13.8013 2.66675 14.2192 2.83981 14.5274 3.14789L16.8519 5.47153C17.0045 5.62414 17.1256 5.80532 17.2083 6.00474C17.2909 6.20416 17.3334 6.4179 17.3334 6.63376C17.3334 6.84962 17.2909 7.06337 17.2083 7.26278C17.1256 7.4622 17.0045 7.64339 16.8519 7.796L13.7986 10.8493C13.9625 11.7619 13.903 12.7007 13.6253 13.5853C13.3476 14.47 12.8598 15.2743 12.2038 15.9296L8.71747 12.4441Z" fill="#160E47"/>
</svg>
