<svg width="18" height="19" viewBox="0 0 18 19" fill="none" xmlns="http://www.w3.org/2000/svg">
<path d="M7.37407 12.768L1.71807 18.425C1.62516 18.5179 1.51486 18.5916 1.39346 18.6419C1.27207 18.6922 1.14196 18.718 1.01057 18.718C0.879171 18.718 0.749063 18.6922 0.62767 18.6419C0.506277 18.5916 0.395976 18.5179 0.303066 18.425C0.210156 18.3321 0.136455 18.2218 0.0861726 18.1004C0.0358899 17.979 0.0100098 17.8489 0.0100098 17.7175C0.0100098 17.5861 0.0358899 17.456 0.0861726 17.3346C0.136455 17.2132 0.210156 17.1029 0.303066 17.01L5.96007 11.354L1.71807 7.10998C2.51552 6.31183 3.49429 5.71851 4.57079 5.38069C5.64729 5.04287 6.78956 4.97057 7.90007 5.16998L11.6171 1.45398C11.9921 1.07904 12.5007 0.868408 13.0311 0.868408C13.5614 0.868408 14.07 1.07904 14.4451 1.45398L17.2741 4.28198C17.4599 4.46771 17.6073 4.68822 17.7078 4.93093C17.8084 5.17363 17.8601 5.43377 17.8601 5.69648C17.8601 5.95919 17.8084 6.21933 17.7078 6.46203C17.6073 6.70474 17.4599 6.92525 17.2741 7.11098L13.5581 10.827C13.7575 11.9377 13.6851 13.0802 13.3471 14.1569C13.0091 15.2336 12.4155 16.2125 11.6171 17.01L7.37407 12.768Z" fill="#EF4036"/>
</svg>
