<svg width="18" height="18" viewBox="0 0 18 18" fill="none" xmlns="http://www.w3.org/2000/svg">
<path d="M10.7213 6.89435C10.0989 6.23281 9.25613 5.86135 8.37752 5.86135C7.49891 5.86135 6.65612 6.23281 6.03377 6.89435L2.71346 10.436C2.15094 11.1112 1.85152 11.9901 1.87644 12.8929C1.90136 13.7958 2.24873 14.6544 2.8475 15.293C3.44627 15.9317 4.25119 16.3023 5.09762 16.3288C5.94404 16.3554 6.768 16.036 7.40096 15.436L7.69393 15.1235M7.40096 10.436C8.0233 11.0976 8.8661 11.469 9.74471 11.469C10.6233 11.469 11.4661 11.0976 12.0885 10.436L15.4088 6.89435C15.9713 6.2192 16.2707 5.34031 16.2458 4.43746C16.2209 3.5346 15.8735 2.67602 15.2747 2.03733C14.676 1.39864 13.871 1.02811 13.0246 1.00154C12.1782 0.974958 11.3542 1.29434 10.7213 1.89435L9.74471 2.93602" stroke="#160E47" stroke-width="2" stroke-linecap="round" stroke-linejoin="round"/>
</svg>
