<svg width="34" height="18" viewBox="0 0 34 18" fill="none" xmlns="http://www.w3.org/2000/svg">
<path d="M3.60005 7.96675C4.06672 5.51675 6.36672 3.83341 8.86672 3.83341H13.7501C14.6167 3.83341 15.3334 3.11675 15.3334 2.25008C15.3334 1.38341 14.6167 0.666748 13.7501 0.666748H9.03339C4.68339 0.666748 0.800054 3.85008 0.383387 8.18341C0.268158 9.34046 0.396588 10.5088 0.760405 11.6132C1.12422 12.7176 1.71536 13.7335 2.49572 14.5955C3.27609 15.4575 4.22837 16.1465 5.29123 16.6181C6.35409 17.0896 7.50395 17.3333 8.66672 17.3334H13.7501C14.6167 17.3334 15.3334 16.6167 15.3334 15.7501C15.3334 14.8834 14.6167 14.1667 13.7501 14.1667H8.66672C7.90117 14.1644 7.14565 13.9925 6.45445 13.6634C5.76325 13.3343 5.15353 12.8562 4.6691 12.2634C4.18467 11.6706 3.83756 10.9778 3.65272 10.2349C3.46788 9.49205 3.44989 8.71743 3.60005 7.96675ZM12.0001 10.6667H22.0001C22.9167 10.6667 23.6667 9.91675 23.6667 9.00008C23.6667 8.08341 22.9167 7.33341 22.0001 7.33341H12.0001C11.0834 7.33341 10.3334 8.08341 10.3334 9.00008C10.3334 9.91675 11.0834 10.6667 12.0001 10.6667ZM24.9667 0.666748H20.2501C19.3834 0.666748 18.6667 1.38341 18.6667 2.25008C18.6667 3.11675 19.3834 3.83341 20.2501 3.83341H25.1334C27.6334 3.83341 29.9334 5.51675 30.4001 7.96675C30.5502 8.71743 30.5322 9.49205 30.3474 10.2349C30.1625 10.9778 29.8154 11.6706 29.331 12.2634C28.8466 12.8562 28.2369 13.3343 27.5457 13.6634C26.8545 13.9925 26.0989 14.1644 25.3334 14.1667H20.2501C19.3834 14.1667 18.6667 14.8834 18.6667 15.7501C18.6667 16.6167 19.3834 17.3334 20.2501 17.3334H25.3334C30.2001 17.3334 34.1001 13.1501 33.6334 8.18341C33.2167 3.85008 29.3167 0.666748 24.9667 0.666748Z" fill="#160E47"/>
</svg>
