<svg width="19" height="19" viewBox="0 0 19 19" fill="none" xmlns="http://www.w3.org/2000/svg">
<path d="M9.50002 1.58331C6.17502 1.58331 3.16669 4.13248 3.16669 8.07498C3.16669 10.5925 5.10627 13.5533 8.97752 16.9654C9.27835 17.2266 9.7296 17.2266 10.0304 16.9654C13.8938 13.5533 15.8334 10.5925 15.8334 8.07498C15.8334 4.13248 12.825 1.58331 9.50002 1.58331ZM9.50002 9.49998C8.62919 9.49998 7.91669 8.78748 7.91669 7.91665C7.91669 7.04581 8.62919 6.33331 9.50002 6.33331C10.3709 6.33331 11.0834 7.04581 11.0834 7.91665C11.0834 8.78748 10.3709 9.49998 9.50002 9.49998Z" fill="#F2F6FA"/>
</svg>
