<svg width="33" height="33" viewBox="0 0 33 33" fill="none" xmlns="http://www.w3.org/2000/svg">
<g clip-path="url(#clip0_1674_15677)">
<path fill-rule="evenodd" clip-rule="evenodd" d="M14.4375 2.74985C12.5738 2.75001 10.7372 3.19585 9.08084 4.05018C7.4245 4.90451 5.99648 6.14255 4.91593 7.66101C3.83538 9.17947 3.13362 10.9343 2.86921 12.7792C2.60479 14.624 2.78539 16.5053 3.39593 18.2661C4.00647 20.027 5.02925 21.6163 6.37893 22.9015C7.72862 24.1866 9.36608 25.1304 11.1547 25.654C12.9433 26.1777 14.8312 26.266 16.6609 25.9116C18.4906 25.5572 20.209 24.7704 21.6727 23.6168L26.6942 28.6383C26.9536 28.8888 27.3009 29.0274 27.6614 29.0243C28.0219 29.0211 28.3668 28.8765 28.6217 28.6216C28.8767 28.3667 29.0213 28.0218 29.0244 27.6613C29.0275 27.3008 28.8889 26.9534 28.6385 26.6941L23.617 21.6726C24.9755 19.9492 25.8213 17.8781 26.0577 15.6965C26.2942 13.5148 25.9116 11.3106 24.9538 9.33623C23.996 7.36183 22.5017 5.69696 20.6419 4.53217C18.7821 3.36737 16.6319 2.7497 14.4375 2.74985ZM5.49998 14.4373C5.49998 12.067 6.44161 9.79369 8.11772 8.11758C9.79382 6.44147 12.0671 5.49985 14.4375 5.49985C16.8079 5.49985 19.0811 6.44147 20.7572 8.11758C22.4334 9.79369 23.375 12.067 23.375 14.4373C23.375 16.8077 22.4334 19.081 20.7572 20.7571C19.0811 22.4332 16.8079 23.3748 14.4375 23.3748C12.0671 23.3748 9.79382 22.4332 8.11772 20.7571C6.44161 19.081 5.49998 16.8077 5.49998 14.4373Z" fill="#4E4E4E"/>
<path d="M18.6712 15.415H15.4146V18.6716C15.4146 19.0298 15.1215 19.3229 14.7633 19.3229C14.4051 19.3229 14.112 19.0298 14.112 18.6716V15.415H10.8554C10.4972 15.415 10.2041 15.1219 10.2041 14.7637C10.2041 14.4055 10.4972 14.1124 10.8554 14.1124H14.112V10.8558C14.112 10.4976 14.4051 10.2045 14.7633 10.2045C15.1215 10.2045 15.4146 10.4976 15.4146 10.8558V14.1124H18.6712C19.0294 14.1124 19.3225 14.4055 19.3225 14.7637C19.3225 15.1219 19.0294 15.415 18.6712 15.415Z" fill="#4E4E4E"/>
</g>
<defs>
<clipPath id="clip0_1674_15677">
<rect width="33" height="33" fill="white"/>
</clipPath>
</defs>
</svg>
