<svg width="150" height="150" viewBox="0 0 150 150" fill="none" xmlns="http://www.w3.org/2000/svg">
<path d="M139.477 126.982C140.956 126.463 142.235 125.514 143.14 124.265C144.045 123.016 144.533 121.527 144.537 120V112.5C144.539 111.515 144.34 110.539 143.951 109.629C143.563 108.719 142.993 107.893 142.274 107.197L129.085 94.395V60C129.085 35.8725 112.203 15.5475 89.3324 9.435C87.0686 3.9 81.5365 0 75 0C68.4635 0 62.9314 3.9 60.6676 9.435C50.4456 12.165 41.6375 17.895 34.8151 25.3875L10.9251 2.1975L0 12.8025L139.075 147.802L150 137.197L139.477 126.982ZM75 150C79.7849 150.006 84.4529 148.564 88.355 145.876C92.257 143.188 95.1994 139.386 96.7729 135H53.227C54.8006 139.386 57.7429 143.188 61.645 145.876C65.5471 148.564 70.215 150.006 75 150ZM20.9153 60V94.395L7.72638 107.197C7.0075 107.893 6.43739 108.719 6.04886 109.629C5.66034 110.539 5.46108 111.515 5.46255 112.5V120C5.46255 121.989 6.27658 123.897 7.72556 125.303C9.17453 126.71 11.1398 127.5 13.1889 127.5H97.2442L21.4407 53.9175C21.2012 55.9275 20.9153 57.93 20.9153 60Z" fill="#160E47"/>
</svg>
