<svg width="5" height="23" viewBox="0 0 5 23" fill="none" xmlns="http://www.w3.org/2000/svg">
<path d="M2.5 17.5C3.16304 17.5 3.79893 17.7634 4.26777 18.2322C4.73661 18.7011 5 19.337 5 20C5 20.663 4.73661 21.2989 4.26777 21.7678C3.79893 22.2366 3.16304 22.5 2.5 22.5C1.83696 22.5 1.20107 22.2366 0.732234 21.7678C0.263393 21.2989 0 20.663 0 20C0 19.337 0.263393 18.7011 0.732234 18.2322C1.20107 17.7634 1.83696 17.5 2.5 17.5ZM2.5 8.75C3.16304 8.75 3.79893 9.01339 4.26777 9.48223C4.73661 9.95107 5 10.587 5 11.25C5 11.913 4.73661 12.5489 4.26777 13.0178C3.79893 13.4866 3.16304 13.75 2.5 13.75C1.83696 13.75 1.20107 13.4866 0.732234 13.0178C0.263393 12.5489 0 11.913 0 11.25C0 10.587 0.263393 9.95107 0.732234 9.48223C1.20107 9.01339 1.83696 8.75 2.5 8.75ZM2.5 0C3.16304 0 3.79893 0.263392 4.26777 0.732233C4.73661 1.20107 5 1.83696 5 2.5C5 3.16304 4.73661 3.79893 4.26777 4.26777C3.79893 4.73661 3.16304 5 2.5 5C1.83696 5 1.20107 4.73661 0.732234 4.26777C0.263393 3.79893 0 3.16304 0 2.5C0 1.83696 0.263393 1.20107 0.732234 0.732233C1.20107 0.263392 1.83696 0 2.5 0Z" fill="#160E47"/>
</svg>
