<svg width="39" height="39" viewBox="0 0 39 39" fill="none" xmlns="http://www.w3.org/2000/svg">
<circle cx="19.5" cy="19.5" r="19.5" fill="#160E47"/>
<path d="M11.4 28.3999L28.85 20.9199C29.0304 20.8431 29.1842 20.7149 29.2923 20.5513C29.4004 20.3877 29.4581 20.196 29.4581 19.9999C29.4581 19.8038 29.4004 19.6121 29.2923 19.4485C29.1842 19.2849 29.0304 19.1567 28.85 19.0799L11.4 11.5999C11.2489 11.534 11.0838 11.5067 10.9195 11.5206C10.7552 11.5345 10.597 11.589 10.4591 11.6793C10.3212 11.7696 10.2079 11.8928 10.1295 12.0378C10.0511 12.1828 10.01 12.3451 10.01 12.5099L10 17.1199C10 17.6199 10.37 18.0499 10.87 18.1099L25 19.9999L10.87 21.8799C10.37 21.9499 10 22.3799 10 22.8799L10.01 27.4899C10.01 28.1999 10.74 28.6899 11.4 28.3999Z" fill="#F2F6FA"/>
</svg>
