<svg width="24" height="24" viewBox="0 0 24 24" fill="none" xmlns="http://www.w3.org/2000/svg">
<path d="M18 8H16C15.45 8 15 8.45 15 9C15 9.55 15.45 10 16 10H18V21H6V10H8C8.55 10 9 9.55 9 9C9 8.45 8.55 8 8 8H6C4.9 8 4 8.9 4 10V21C4 22.1 4.9 23 6 23H18C19.1 23 20 22.1 20 21V10C20 8.9 19.1 8 18 8Z" fill="#F2F6FA"/>
<path d="M12 16C12.55 16 13 15.55 13 15V5.00002H14.79C15.24 5.00002 15.46 4.46002 15.14 4.15002L12.35 1.36002C12.15 1.16002 11.84 1.16002 11.64 1.36002L8.85 4.15002C8.7809 4.22052 8.73421 4.30989 8.71582 4.40688C8.69742 4.50387 8.70816 4.60413 8.74665 4.69503C8.78515 4.78593 8.8497 4.8634 8.93215 4.91767C9.01461 4.97195 9.11129 5.0006 9.21 5.00002H11V15C11 15.55 11.45 16 12 16Z" fill="#F2F6FA"/>
<path d="M18 8.00012H16C15.45 8.00012 15 8.45012 15 9.00012C15 9.55012 15.45 10.0001 16 10.0001H18V21.0001H6V10.0001H8C8.55 10.0001 9 9.55012 9 9.00012C9 8.45012 8.55 8.00012 8 8.00012H6C4.9 8.00012 4 8.90012 4 10.0001V21.0001C4 22.1001 4.9 23.0001 6 23.0001H18C19.1 23.0001 20 22.1001 20 21.0001V10.0001C20 8.90012 19.1 8.00012 18 8.00012Z" fill="#F2F6FA"/>
<path d="M12 16C12.55 16 13 15.55 13 15V4.99996H14.79C15.24 4.99996 15.46 4.45996 15.14 4.14996L12.35 1.35996C12.15 1.15996 11.84 1.15996 11.64 1.35996L8.85 4.14996C8.7809 4.22046 8.73421 4.30983 8.71582 4.40682C8.69742 4.50381 8.70816 4.60407 8.74665 4.69497C8.78515 4.78587 8.8497 4.86334 8.93215 4.91761C9.01461 4.97189 9.11129 5.00054 9.21 4.99996H11V15C11 15.55 11.45 16 12 16Z" fill="#F2F6FA"/>
</svg>
