<svg width="20" height="20" viewBox="0 0 20 20" fill="none" xmlns="http://www.w3.org/2000/svg">
<path d="M15 6.66667H13.3333C12.875 6.66667 12.5 7.04167 12.5 7.50001C12.5 7.95834 12.875 8.33334 13.3333 8.33334H15V17.5H5.00001V8.33334H6.66668C7.12501 8.33334 7.50001 7.95834 7.50001 7.50001C7.50001 7.04167 7.12501 6.66667 6.66668 6.66667H5.00001C4.08334 6.66667 3.33334 7.41667 3.33334 8.33334V17.5C3.33334 18.4167 4.08334 19.1667 5.00001 19.1667H15C15.9167 19.1667 16.6667 18.4167 16.6667 17.5V8.33334C16.6667 7.41667 15.9167 6.66667 15 6.66667Z" fill="#170E49"/>
<path d="M10 13.3333C10.4583 13.3333 10.8333 12.9583 10.8333 12.5V4.16666H12.325C12.7 4.16666 12.8833 3.71666 12.6167 3.45833L10.2917 1.13333C10.125 0.966665 9.86667 0.966665 9.7 1.13333L7.375 3.45833C7.31742 3.51708 7.27851 3.59156 7.26318 3.67238C7.24786 3.7532 7.2568 3.83675 7.28888 3.9125C7.32097 3.98825 7.37475 4.05281 7.44347 4.09804C7.51218 4.14327 7.59274 4.16715 7.675 4.16666H9.16667V12.5C9.16667 12.9583 9.54167 13.3333 10 13.3333Z" fill="#170E49"/>
</svg>
