<svg width="24" height="24" viewBox="0 0 24 24" fill="none" xmlns="http://www.w3.org/2000/svg">
<path d="M9 6C10.0609 6 11.0783 6.42143 11.8284 7.17157C12.5786 7.92172 13 8.93913 13 10C13 11.0609 12.5786 12.0783 11.8284 12.8284C11.0783 13.5786 10.0609 14 9 14C7.93913 14 6.92172 13.5786 6.17157 12.8284C5.42143 12.0783 5 11.0609 5 10C5 8.93913 5.42143 7.92172 6.17157 7.17157C6.92172 6.42143 7.93913 6 9 6ZM9 16C11.67 16 17 17.34 17 20V22H1V20C1 17.34 6.33 16 9 16ZM16.76 6.36C18.78 8.56 18.78 11.61 16.76 13.63L15.08 11.94C15.92 10.76 15.92 9.23 15.08 8.05L16.76 6.36ZM20.07 3C24 7.05 23.97 13.11 20.07 17L18.44 15.37C21.21 12.19 21.21 7.65 18.44 4.63L20.07 3Z" fill="#160E47"/>
</svg>
