<svg width="42" height="42" viewBox="0 0 42 42" fill="none" xmlns="http://www.w3.org/2000/svg">
<path d="M15.2708 41.8333L14.4375 35.1666C13.9861 34.993 13.5611 34.7847 13.1625 34.5416C12.7639 34.2986 12.3729 34.0382 11.9896 33.7604L5.79167 36.3645L0.0625 26.4687L5.42708 22.4062C5.39236 22.1632 5.375 21.9291 5.375 21.7041V20.2979C5.375 20.0715 5.39236 19.8368 5.42708 19.5937L0.0625 15.5312L5.79167 5.63538L11.9896 8.23954C12.3715 7.96177 12.7708 7.70135 13.1875 7.45829C13.6042 7.21524 14.0208 7.0069 14.4375 6.83329L15.2708 0.166626H26.7292L27.5625 6.83329C28.0139 7.0069 28.4396 7.21524 28.8396 7.45829C29.2396 7.70135 29.6299 7.96177 30.0104 8.23954L36.2083 5.63538L41.9375 15.5312L36.5729 19.5937C36.6076 19.8368 36.625 20.0715 36.625 20.2979V21.702C36.625 21.9284 36.5903 22.1632 36.5208 22.4062L41.8854 26.4687L36.1562 36.3645L30.0104 33.7604C29.6285 34.0382 29.2292 34.2986 28.8125 34.5416C28.3958 34.7847 27.9792 34.993 27.5625 35.1666L26.7292 41.8333H15.2708ZM21.1042 28.2916C23.1181 28.2916 24.8368 27.5798 26.2604 26.1562C27.684 24.7326 28.3958 23.0138 28.3958 21C28.3958 18.9861 27.684 17.2673 26.2604 15.8437C24.8368 14.4201 23.1181 13.7083 21.1042 13.7083C19.0556 13.7083 17.3278 14.4201 15.9208 15.8437C14.5139 17.2673 13.8111 18.9861 13.8125 21C13.8125 23.0138 14.516 24.7326 15.9229 26.1562C17.3299 27.5798 19.0569 28.2916 21.1042 28.2916Z" fill="white"/>
</svg>
